<svg viewBox="0 0 66 48" xmlns="http://www.w3.org/2000/svg">
<path d="M29.3999 6.91187H8.94043V8.44378H29.3999V6.91187Z"/>
<path d="M29.3995 12.6238H12.0039V14.1557H29.3995V12.6238Z"/>
<path d="M29.3999 18.3359H8.94043V19.8679H29.3999V18.3359Z"/>
<path d="M29.3995 24.0476H12.0039V25.5795H29.3995V24.0476Z"/>
<path d="M29.3999 29.7595H8.94043V31.2914H29.3999V29.7595Z"/>
<path d="M29.3995 35.4717H12.0039V37.0036H29.3995V35.4717Z"/>
<path d="M57.4848 6.91187H37.0254V8.44378H57.4848V6.91187Z"/>
<path d="M54.421 12.6238H37.0254V14.1557H54.421V12.6238Z"/>
<path d="M57.4848 18.3359H37.0254V19.8679H57.4848V18.3359Z"/>
<path d="M54.421 24.0476H37.0254V25.5795H54.421V24.0476Z"/>
<path d="M57.4848 29.7595H37.0254V31.2914H57.4848V29.7595Z"/>
<path d="M54.421 35.4717H37.0254V37.0036H54.421V35.4717Z"/>
<path d="M64.8722 5.16805H62.0637V0.949795C62.0637 0.526923 61.7206 0.183838 61.2978 0.183838H38.4008C36.1664 0.183838 34.2297 1.3918 33.2133 3.20004C32.1969 1.39162 30.259 0.183838 28.0245 0.183838H5.12754C4.70466 0.183838 4.36158 0.526923 4.36158 0.949795V5.16805H1.55307C1.13019 5.16805 0.787109 5.51113 0.787109 5.934V47.0504C0.787109 47.4732 1.13019 47.8163 1.55307 47.8163C9.24331 47.8163 57.1545 47.8163 64.8722 47.8163C65.2951 47.8163 65.6382 47.4732 65.6382 47.0504V5.934C65.6382 5.51113 65.2951 5.16805 64.8722 5.16805ZM38.4008 1.71575H60.5318C60.5318 8.57493 60.5318 26.6436 60.5318 42.7408H36.7667C35.7132 42.7408 34.6599 43.1851 33.9786 43.7611V6.12799C33.9786 3.68272 35.9363 1.71575 38.4008 1.71575ZM5.89349 1.71575H28.0245C30.4196 1.71575 32.3579 3.57978 32.4372 5.95944C32.4382 5.99235 32.4412 6.09557 32.4467 6.12799V6.13397V6.13547V43.7581C31.7672 43.1844 30.7252 42.7408 29.6686 42.7408H5.89349C5.89349 26.649 5.89349 8.57274 5.89349 1.71575ZM2.31902 6.69996H4.36158V43.5068C4.36158 43.9297 4.70466 44.2728 5.12754 44.2728H29.6686C30.8362 44.2728 31.9646 45.0387 32.3258 46.2844H2.31902V6.69996ZM64.1063 46.2844H34.1C34.4636 45.0327 35.5807 44.2728 36.7667 44.2728H61.2978C61.7206 44.2728 62.0637 43.9297 62.0637 43.5068V6.69996H64.1063V46.2844Z"/>
</svg>
