<svg viewBox="0 0 55 48" xmlns="http://www.w3.org/2000/svg">
<path d="M3.57115 44.1788H21.916C22.8457 46.1068 24.791 47.3524 26.9863 47.3524H28.1448C30.3423 47.3524 32.2865 46.1074 33.2162 44.1788H51.5712C53.4618 44.1788 54.9997 42.6409 54.9997 40.7503V7.89311C54.9997 6.00249 53.4618 4.46454 51.5712 4.46454H49.7196V2.9333C49.7196 1.67269 48.6939 0.647583 47.4339 0.647583H7.69726C6.43722 0.647583 5.41155 1.67269 5.41155 2.9333V4.46454H3.57115C1.68052 4.46454 0.142578 6.00249 0.142578 7.89311V40.7503C0.142578 42.6409 1.68052 44.1788 3.57115 44.1788ZM47.4316 37.1275H28.714V10.5698C33.0404 11.1357 36.3948 14.8373 36.3948 19.3156V20.3463L36.1236 20.2865C35.829 20.2235 35.5198 20.2765 35.2631 20.4394C35.0075 20.603 34.8267 20.8608 34.762 21.1571L32.9428 29.4361C32.8078 30.0516 33.1973 30.6604 33.8133 30.796L37.7453 31.6627C37.9484 31.7056 38.1549 31.7279 38.3613 31.7279C39.7441 31.7279 40.9216 30.7821 41.2229 29.4255L42.2754 24.6375C42.6225 23.0656 41.6258 21.5019 40.0488 21.1515L38.6805 20.85V19.3156C38.6805 13.5745 34.3048 8.83692 28.714 8.26019V2.9333H47.4339L47.4316 37.1275ZM36.7486 22.7648L39.5555 23.3831C39.906 23.4612 40.1202 23.7949 40.0432 24.1454L38.9908 28.9322C38.9149 29.2782 38.5321 29.493 38.2296 29.4288L35.4194 28.8094L36.7486 22.7648ZM7.69726 2.9333H26.4283V8.2585C20.832 8.82993 16.4506 13.5706 16.4506 19.3156V20.8493L15.0801 21.1521C14.3167 21.3217 13.6649 21.7765 13.2464 22.4327C12.8256 23.0907 12.6872 23.8742 12.8569 24.6353L13.9071 29.4177C14.1917 30.7564 15.3959 31.7279 16.7709 31.7279C16.9774 31.7279 17.1839 31.7056 17.3948 31.661L21.31 30.796C21.925 30.6599 22.3145 30.0516 22.1794 29.4361L20.3602 21.1571C20.2955 20.8608 20.1147 20.6024 19.8591 20.4394C19.6024 20.2765 19.2921 20.2229 18.9975 20.2865L18.7363 20.3442V19.3156C18.7363 14.8335 22.0965 11.129 26.4283 10.5681V37.1275H7.69726V5.6074V2.9333ZM18.3736 22.7659L19.704 28.81L16.9093 29.4272C16.5656 29.5047 16.2151 29.2776 16.1415 28.9355L15.089 24.142C15.0511 23.9757 15.0812 23.8055 15.1716 23.6638C15.2631 23.5203 15.4071 23.421 15.5734 23.3836L18.3736 22.7659ZM2.42829 7.89311C2.42829 7.26309 2.94057 6.75026 3.57115 6.75026H5.41155V37.1275C5.41155 38.3881 6.43722 39.4132 7.69726 39.4132H47.4339C48.6939 39.4132 49.7196 38.3881 49.7196 37.1275V6.75026H51.5712C52.2017 6.75026 52.714 7.26309 52.714 7.89311V40.7503C52.714 41.3803 52.2017 41.8931 51.5712 41.8931H32.4395C31.9372 41.8931 31.4941 42.2207 31.3468 42.7006C30.9127 44.1158 29.6258 45.0667 28.1448 45.0667H26.9863C25.5109 45.0667 24.2252 44.1197 23.7799 42.6872C23.6281 42.214 23.1884 41.8931 22.6917 41.8931H3.57115C2.94057 41.8931 2.42829 41.3803 2.42829 40.7503V7.89311Z"/>
</svg>
