<svg viewBox="0 0 49 48" xmlns="http://www.w3.org/2000/svg">
<path d="M2.99023 18.837V23.084C2.99023 23.3121 3.09489 23.5271 3.27429 23.6688C6.17685 25.9532 9.81887 27.212 13.5299 27.212C14.6406 27.212 15.7522 27.0959 16.8391 26.8764C19.1558 27.9004 21.6217 28.4243 24.1741 28.4243C26.7347 28.4243 29.2012 27.9001 31.5097 26.8764C36.146 27.8127 41.0862 26.8071 45.0733 23.6688C45.2527 23.5271 45.3573 23.3121 45.3573 23.084V18.837C45.3573 18.2137 45.0478 17.6457 44.495 17.2963L38.6943 14.0329C39.9632 12.4227 40.9086 10.1302 41.0731 8.16368C41.5546 4.77893 38.7959 1.19418 34.8249 1.19418C33.1551 1.19418 31.5678 1.88152 30.4031 3.03435C30.3628 3.07429 30.3168 3.10798 30.2776 3.14904C30.2417 3.18653 30.2127 3.23026 30.1778 3.26872C30.1545 3.29423 30.1343 3.32242 30.1115 3.3483C28.9766 1.27875 26.7951 0 24.225 0C23.9753 0 23.7301 0.0171075 23.4871 0.0418018C23.4724 0.0409092 23.4599 0.0333968 23.4448 0.0333968C23.3068 0.0333968 23.0148 0.0696943 22.8587 0.114769C22.8356 0.121463 22.819 0.137752 22.7971 0.14638C20.8779 0.534497 19.2521 1.69751 18.2777 3.38029C17.1058 2.01377 15.3831 1.19485 13.5095 1.19485C7.64741 1.19485 5.04663 8.11266 9.67397 14.066L3.8198 17.316C3.3004 17.6449 2.99023 18.2137 2.99023 18.837ZM31.4952 25.2419C31.3694 25.3033 31.2449 25.3689 31.1182 25.4266L31.1181 25.4267C31.1171 25.4271 31.1163 25.4277 31.1153 25.428C28.9369 26.429 26.6017 26.9367 24.1741 26.9367C21.7539 26.9367 19.4186 26.429 17.23 25.4266C16.1651 24.9421 15.1352 24.3262 14.1625 23.5954V19.2902C14.1625 19.1435 14.2337 19.0135 14.3158 18.9589L21.1288 15.1723C21.9765 15.8919 23.0594 16.4196 24.1814 16.4196C25.2622 16.4196 26.4296 15.8842 27.26 15.1547L33.9903 18.9343C34.1145 19.0142 34.1857 19.1435 34.1857 19.2902V23.5947C33.3288 24.2385 32.4264 24.7869 31.4952 25.2419ZM43.7317 18.5725C43.8195 18.6277 43.8697 18.7243 43.8697 18.837V22.718C40.9169 24.9339 37.364 25.9397 33.7644 25.6873C34.3182 25.3417 34.9213 24.9129 35.3886 24.5469C35.568 24.406 35.6733 24.1903 35.6733 23.9615V19.2902C35.6733 18.6379 35.3457 18.0372 34.7581 17.6603L31.1829 15.6511L32.0523 15.1695C33.1068 16.0294 34.0123 16.2852 34.8249 16.2852C35.8186 16.2852 36.8649 15.7977 37.6418 15.147L43.7317 18.5725ZM34.8249 2.68178C36.8955 2.68178 38.7144 4.03491 39.3567 5.89524C38.1073 5.74699 36.8856 5.13031 36.0016 4.1824C35.8418 4.01103 35.6145 3.92237 35.3784 3.94997C35.146 3.97466 34.939 4.10758 34.8191 4.30811C33.9707 5.72959 32.5797 6.67824 30.9976 6.94772C30.9977 6.94623 30.9974 6.94489 30.9974 6.9434C31.0045 6.61977 30.9857 6.29183 30.9486 5.96389C30.9448 5.93027 30.9417 5.89724 30.9374 5.864C30.8895 5.49142 30.7773 5.02588 30.7551 4.9509C31.5997 3.5977 33.1687 2.68178 34.8249 2.68178ZM30.8347 8.46537C32.7139 8.25949 34.4136 7.31516 35.581 5.82257C36.7317 6.76623 38.1914 7.33806 39.6339 7.40716C39.6227 10.095 37.4272 14.7976 34.8249 14.7976C32.819 14.7976 31.1066 11.9291 30.4667 9.94033C30.6293 9.42882 30.7477 8.93679 30.8347 8.46537ZM30.9857 14.0593L29.6569 14.7951L28.3149 14.0414C28.8125 13.4216 29.2687 12.702 29.6594 11.9213C30.0349 12.7109 30.485 13.4364 30.9857 14.0593ZM28.9805 9.69704C28.2632 11.8369 26.4232 14.932 24.1814 14.932C21.5681 14.932 19.3425 10.6358 18.9185 7.88833C19.0316 7.86029 22.5628 8.07785 24.9928 4.88701C26.2263 5.91881 27.8903 6.6017 29.5088 6.66946C29.5279 7.6393 29.2927 8.77881 28.9805 9.69704ZM24.225 1.48761C28.3945 1.48761 29.1882 5.07631 29.2535 5.15076C27.7416 4.99724 26.3621 4.25656 25.409 3.2374C25.2491 3.06603 25.0167 2.98027 24.785 3.00571C24.5518 3.03115 24.3448 3.16481 24.225 3.36675C23.3991 4.76406 22.1037 5.7496 20.604 6.16843C20.025 6.33021 19.3996 6.404 18.8544 6.39871C19.0585 3.66598 21.2487 1.48761 24.225 1.48761ZM18.6922 11.907C19.078 12.6791 19.5365 13.4166 20.0613 14.0645L18.7482 14.7944L17.3879 14.0298C17.9038 13.3723 18.3417 12.6366 18.6922 11.907ZM13.5095 2.68245C15.1964 2.68245 16.742 3.53849 17.6034 4.95313C17.5601 5.10308 17.4437 5.69999 17.4284 5.77466C16.3933 5.52698 15.4424 4.9756 14.6972 4.18099C14.5367 4.01029 14.31 3.92527 14.0732 3.94997C13.8408 3.9754 13.6338 4.10907 13.5147 4.31026C12.5198 5.98925 10.6936 7.03206 8.74892 7.03258C8.98573 4.59231 11.0259 2.68245 13.5095 2.68245ZM8.81429 8.5164C10.9518 8.49557 12.9698 7.48809 14.278 5.82257C15.1718 6.55834 16.2333 7.04277 17.3613 7.26406C17.405 8.12635 17.6297 9.17414 17.8867 9.94688C17.476 11.2064 16.688 12.7079 15.7106 13.705C15.7044 13.7112 15.6962 13.714 15.6902 13.7204C15.0785 14.3647 14.2083 14.7983 13.524 14.7983C11.1331 14.7983 9.26289 11.0362 8.81429 8.5164ZM4.47784 18.837C4.47784 18.7243 4.52797 18.6285 4.57885 18.5943L10.7526 15.1682C11.123 15.4766 11.2082 15.5118 11.2827 15.5663L11.2825 15.5668C12.0091 16.0497 12.675 16.2903 13.5836 16.2903C14.5512 16.2903 15.4321 15.8803 16.2073 15.249C16.251 15.2148 16.298 15.1818 16.3395 15.147L17.2206 15.6424L13.551 17.6835C13.0026 18.0372 12.6749 18.6379 12.6749 19.2902V23.9615C12.6749 24.1896 12.7796 24.4053 12.9597 24.5462C13.4348 24.9194 14.0508 25.3547 14.5839 25.6881C10.9324 25.9372 7.37971 24.8956 4.47784 22.718V18.837Z"/>
<path d="M46.8879 31.1713C45.9727 30.5961 44.8461 30.5365 43.8771 31.0064L34.6979 35.4407C34.6659 33.7227 33.2638 32.3335 31.5375 32.3335L26.2743 32.3349C23.679 30.0788 20.3624 28.6973 17.3465 28.6247C14.3724 28.5542 11.7027 28.5344 10.4576 28.5288V27.0259H0V44.3012H10.4576V42.2324C13.3254 43.8777 20.8661 47.9999 24.4446 47.9999C24.5259 47.9999 24.6051 47.9977 24.6813 47.9933C30.9746 47.6403 45.8172 37.1958 46.7964 36.5022C47.7538 35.9465 48.3472 34.9179 48.3472 33.8088C48.3472 32.7301 47.8017 31.7444 46.8879 31.1713ZM8.96997 42.8135H1.48761V28.5135H8.96997V42.8135ZM46.0308 35.2266C46.0083 35.239 45.9858 35.2528 45.9647 35.268C45.8114 35.377 30.5439 46.1745 24.5985 46.5086C24.5397 46.5115 24.4801 46.513 24.4176 46.513C21.2789 46.513 13.6263 42.3842 10.4576 40.5116V30.0165C11.698 30.0221 14.3524 30.0419 17.3108 30.1123C20.0659 30.1783 23.1247 31.4938 25.4941 33.6308L25.7063 33.8225L31.5375 33.8211C32.4629 33.8211 33.2162 34.5736 33.2162 35.499C33.2162 36.4244 32.4637 37.1777 31.5383 37.1777H20.8251V38.6653H31.5383C32.565 38.6653 33.4699 38.1662 34.0486 37.4061L44.5244 32.3459C45.0386 32.0953 45.6124 32.1272 46.0976 32.4315C46.5822 32.7352 46.8596 33.2371 46.8596 33.8088C46.8596 34.3957 46.5421 34.9382 46.0308 35.2266Z"/>
<path d="M24.9173 18.2378H23.4297V19.6172H24.9173V18.2378Z"/>
<path d="M24.9173 20.9885H23.4297V22.3679H24.9173V20.9885Z"/>
<path d="M24.9173 23.7393H23.4297V25.1186H24.9173V23.7393Z"/>
</svg>
