<svg viewBox="0 0 40 47" xmlns="http://www.w3.org/2000/svg">
<path d="M-0.15347 46.6381C5.00796 46.6381 34.8682 46.6381 40.0236 46.6381C40.2225 42.0563 39.8943 34.4544 37.0773 30.8363L36.9755 30.7063L30.8197 27.6156C30.9534 27.1647 31.0192 26.7517 31.0456 26.4481C31.076 26.0838 31.0258 25.7414 30.8957 25.4314C29.8801 23.0013 27.7312 21.7228 26.5491 21.1777C26.9094 20.452 27.1416 19.6729 27.2538 18.8768C27.9229 18.6883 28.4611 18.158 28.6376 17.4506L29.3561 14.5316C29.4834 14.0166 29.4035 13.4826 29.1298 13.0284C29.012 12.8326 28.8597 12.6677 28.6889 12.5268C30.7147 7.92517 27.3218 3.5863 27.1369 3.35791C23.4622 -0.615096 18.8201 0.127805 18.5747 0.171834C11.8756 1.57462 9.2903 6.70877 10.7499 12.7302C10.3174 13.2092 10.136 13.8765 10.2962 14.5309L11.0182 17.4531C11.1933 18.1553 11.7273 18.6837 12.3916 18.8744C12.5966 20.3323 13.2137 21.6509 14.12 22.7136V25.0277C4.50666 29.9507 10.598 26.8099 2.89388 30.7074C2.87865 30.7801 -0.721045 34.6058 -0.186001 45.9453L-0.15347 46.6381ZM38.6275 45.1836H32.0152V42.4059L36.3885 32.3941C38.5794 36.0305 38.6608 42.9737 38.6275 45.1836ZM29.6029 26.3245C29.3477 29.2558 27.7402 28.3698 26.7479 30.6282C25.9674 29.7699 25.7327 28.7408 25.9424 27.6392C26.3214 25.6164 25.0868 25.0157 25.3919 22.8903L25.4382 22.8416V22.8348C25.4644 22.8055 25.7079 22.5156 25.7783 22.424C28.3945 23.5644 29.6539 25.6854 29.6029 26.3245ZM15.5684 24.0206C16.7829 24.8629 18.2489 25.3608 19.8258 25.3608C21.3108 25.3608 22.7213 24.9287 23.9305 24.133C24.0981 25.8038 24.7512 26.1383 24.5195 27.3679C24.476 27.5961 24.4525 27.821 24.4386 28.0422L19.9354 33.1175L14.1788 26.6276L15.5684 25.902V24.0206H15.5684ZM13.758 17.8093V14.9953C13.758 13.9591 13.758 9.8481 13.758 10.0511C14.4588 8.75493 15.4142 7.81495 16.6016 7.25138C19.7818 9.05072 23.4423 11.736 25.8971 14.4386C25.8948 17.8803 25.9068 17.8896 25.884 18.1724L25.8824 18.1904C25.6909 21.3156 23.1211 23.9062 19.8258 23.9062C16.6221 23.9062 13.9623 21.3909 13.77 18.1594C13.7601 18.0436 13.758 17.9275 13.758 17.8093ZM12.8612 27.3295L19.9354 35.3043L24.6848 29.9515C24.7933 30.2641 24.9456 30.5593 25.1197 30.8446L19.9354 37.3277L12.2046 27.6591L12.8612 27.3295ZM27.3455 16.6388V14.392C27.4091 14.319 27.9491 13.6999 27.8854 13.7729C27.9153 14.9105 28.0381 13.5678 27.3455 16.6388ZM18.8428 1.60117C19.1301 1.61906 22.9905 1.01398 26.0414 4.30785C26.1615 4.4586 28.6451 7.65848 27.6473 11.159C27.3058 9.60135 26.7106 7.60526 25.7698 6.65266L24.7416 7.67681C25.6704 8.61759 26.2805 11.4825 26.5129 12.9677C22.2523 8.5094 16.7562 5.68763 16.6808 5.63988C16.4052 5.81131 14.0794 6.25349 12.3902 9.53654L12.3096 9.6935V12.1047C12.2371 12.1055 12.0242 12.1078 12.0967 12.107C11.0234 6.92547 13.0787 2.80932 18.8428 1.60117ZM11.9441 13.6033L12.3096 15.0841V16.6406L11.7021 14.1818C11.613 13.8153 11.8845 13.6763 11.9441 13.6033ZM10.8791 28.3245L19.9354 39.6509L26.0627 31.9874C26.7292 32.5839 27.0497 32.6685 28.4629 33.3952L27.9862 31.7784C27.8653 31.3679 28.3441 30.7095 28.6333 30.4069C29.2789 30.0567 29.817 29.5573 30.2196 28.9407L35.2188 31.451L30.5668 42.1012V45.1836H9.30327V42.1008L4.64915 31.452L10.8791 28.3245ZM3.48085 32.3973L7.85492 42.4062V45.1836H1.24255C1.20932 42.9744 1.29135 36.0348 3.48085 32.3973Z"/>
</svg>
