<svg aria-hidden="true" style="position:absolute;width:0;height:0" xmlns="http://www.w3.org/2000/svg" overflow="hidden"><defs><symbol id="icon-fire" viewBox="0 0 26 32"><path d="M22.642 16.08c-.275-.616-.654-1.222-1.208-1.922-1.398-1.757-1.824-5.676-1.829-5.714a.472.472 0 00-.327-.399.48.48 0 00-.502.136c-1.668 1.865-.967 4.746-.588 5.897.104.315.218.686.298 1.062.616 3.04-.573 4.417-.853 4.694-.27.075-.455.037-.625-.146-.588-.644-.782-2.753-.507-5.502a5.602 5.602 0 00-.038-1.532c-.58-3.379-2.704-5.546-3.245-6.306C11.73 4.149 11.579.489 11.574.456a.474.474 0 00-.74-.371C8.351 1.772 8.565 5.836 8.91 8.106c.081.526.237 1.062.507 1.739.962 2.42-.19 5.545-.199 5.573s-.019.052-.024.08c-.147.771-.393 1.231-.668 1.231a.341.341 0 01-.09-.014c-.336-.071-.512-.428-.516-.738-.019-4.008-4.041-5.357-4.084-5.371a.471.471 0 00-.502.141.461.461 0 00-.066.517c.047.099.199.531.095 2.058a17.543 17.543 0 01-.744 4.032c-.957 3.12-.805 6.075-.796 6.216.736 8.002 12.245 9.404 19.075 4.896.748-.493 1.36-1.057 1.81-1.677 2.521-3.477 1.038-8.199-.066-10.708zM5.135 23.725a.469.469 0 01-.445.493h-.028a.472.472 0 01-.474-.442 16.899 16.899 0 01.019-2.185.478.478 0 01.507-.437c.261.019.46.244.441.503a15.13 15.13 0 00-.019 2.067zm.233-4.163a.47.47 0 01-.469.414c-.019 0-.038 0-.062-.005a.473.473 0 01-.412-.522l.227-1.814a.478.478 0 01.531-.409.471.471 0 01.412.526l-.227 1.809zM19.437 6.428a.47.47 0 01-.396-.535c.03-.191.201-1.168.665-1.66.179-.189.478-.199.67-.021s.2.475.021.664c-.197.208-.364.804-.42 1.16a.474.474 0 01-.541.392zM2.164 8.769c-.091-.349-.316-.926-.532-1.114-.197-.171-.217-.468-.044-.663s.471-.215.669-.044c.511.444.777 1.4.826 1.587a.474.474 0 01-.918.234z"/></symbol><symbol id="icon-menu" viewBox="0 0 48 32"><path d="M0 5.333V0h48v5.333H0zm0 13.334h48v-5.333H0v5.333zM0 32h48v-5.333H0V32z"/></symbol><symbol id="icon-en" viewBox="0 0 59 32"><path d="M25.341 23.585v6.326H2.103V.967h22.701v6.326H10.208v4.879h12.86v6.12h-12.86v5.293h15.134zM59.077.968v28.944h-6.74L39.56 14.489v15.423h-8.022V.968h6.74l12.777 15.423V.968h8.022z"/></symbol><symbol id="icon-hell" viewBox="0 0 80 32"><path d="M25.571 3.185v26.877h-7.602V19.58H7.602v10.482H0V3.185h7.602v10.098h10.367V3.185h7.602zM53.395 19.695c0 .051-.038.653-.115 1.805H38.152c.307 1.075.896 1.907 1.766 2.496.896.563 2.009.845 3.341.845.998 0 1.856-.141 2.572-.422.742-.282 1.485-.742 2.227-1.382l3.84 3.993c-2.022 2.253-4.979 3.379-8.869 3.379-2.432 0-4.569-.461-6.412-1.382s-3.276-2.201-4.3-3.84c-.998-1.638-1.497-3.494-1.497-5.567 0-2.048.486-3.878 1.459-5.491.998-1.638 2.368-2.918 4.108-3.84s3.699-1.382 5.874-1.382c2.073 0 3.955.435 5.644 1.305a9.503 9.503 0 013.993 3.724c.998 1.613 1.497 3.532 1.497 5.759zm-11.096-5.606c-1.126 0-2.073.32-2.841.96-.742.64-1.216 1.51-1.421 2.611h8.524c-.205-1.101-.691-1.971-1.459-2.611-.742-.64-1.677-.96-2.803-.96zM58.294 1.573h7.295v28.489h-7.295V1.573zM71.866 1.573h7.295v28.489h-7.295V1.573z"/></symbol></defs></svg>