<svg aria-hidden="true" style="position: absolute; width: 0; height: 0; overflow: hidden;" version="1.1" xmlns="http://www.w3.org/2000/svg" xmlns:xlink="http://www.w3.org/1999/xlink">
<defs>
<symbol id="icon-fire" viewBox="0 0 26 32">
<path d="M22.642 16.080c-0.275-0.616-0.654-1.222-1.208-1.922-1.398-1.757-1.824-5.676-1.829-5.714-0.019-0.188-0.152-0.343-0.327-0.399-0.18-0.056-0.374-0.005-0.502 0.136-1.668 1.865-0.967 4.746-0.588 5.897 0.104 0.315 0.218 0.686 0.298 1.062 0.616 3.040-0.573 4.417-0.853 4.694-0.27 0.075-0.455 0.037-0.625-0.146-0.588-0.644-0.782-2.753-0.507-5.502 0.057-0.559 0.043-1.062-0.038-1.532-0.58-3.379-2.704-5.546-3.245-6.306-1.488-2.199-1.639-5.859-1.644-5.892-0.005-0.174-0.104-0.329-0.261-0.404-0.152-0.075-0.336-0.066-0.479 0.033-2.483 1.687-2.269 5.751-1.924 8.021 0.081 0.526 0.237 1.062 0.507 1.739 0.962 2.42-0.19 5.545-0.199 5.573s-0.019 0.052-0.024 0.080c-0.147 0.771-0.393 1.231-0.668 1.231-0.028 0-0.057-0.005-0.090-0.014-0.336-0.071-0.512-0.428-0.516-0.738-0.019-4.008-4.041-5.357-4.084-5.371-0.18-0.056-0.379-0.005-0.502 0.141-0.128 0.146-0.152 0.348-0.066 0.517 0.047 0.099 0.199 0.531 0.095 2.058-0.090 1.372-0.341 2.73-0.744 4.032-0.957 3.12-0.805 6.075-0.796 6.216 0.736 8.002 12.245 9.404 19.075 4.896 0.748-0.493 1.36-1.057 1.81-1.677 2.521-3.477 1.038-8.199-0.066-10.708zM5.135 23.725c0.014 0.259-0.185 0.479-0.445 0.493h-0.028c-0.251 0-0.46-0.193-0.474-0.442-0.043-0.686-0.033-1.405 0.019-2.185 0.019-0.258 0.246-0.451 0.507-0.437 0.261 0.019 0.46 0.244 0.441 0.503-0.052 0.742-0.062 1.419-0.019 2.067zM5.368 19.562c-0.028 0.24-0.232 0.414-0.469 0.414-0.019 0-0.038 0-0.062-0.005-0.256-0.033-0.441-0.263-0.412-0.522l0.227-1.814c0.033-0.254 0.265-0.437 0.531-0.409 0.261 0.033 0.445 0.268 0.412 0.526l-0.227 1.809z"></path>
<path d="M19.437 6.428c-0.258-0.040-0.436-0.279-0.396-0.535 0.030-0.191 0.201-1.168 0.665-1.66 0.179-0.189 0.478-0.199 0.67-0.021s0.2 0.475 0.021 0.664c-0.197 0.208-0.364 0.804-0.42 1.16-0.040 0.254-0.279 0.431-0.541 0.392z"></path>
<path d="M2.164 8.769c-0.091-0.349-0.316-0.926-0.532-1.114-0.197-0.171-0.217-0.468-0.044-0.663s0.471-0.215 0.669-0.044c0.511 0.444 0.777 1.4 0.826 1.587 0.065 0.251-0.088 0.507-0.341 0.572-0.259 0.065-0.513-0.091-0.577-0.338z"></path>
</symbol>
<symbol id="icon-menu" viewBox="0 0 48 32">
<path stroke-linejoin="miter" stroke-linecap="butt" stroke-miterlimit="4" stroke-width="4.5714" d="M0 2.286h46.857"></path>
<path stroke-linejoin="miter" stroke-linecap="butt" stroke-miterlimit="4" stroke-width="4.5714" d="M0 16h46.857"></path>
<path stroke-linejoin="miter" stroke-linecap="butt" stroke-miterlimit="4" stroke-width="4.5714" d="M0 29.714h46.857"></path>
</symbol>
<symbol id="icon-en" viewBox="0 0 59 32">
<path d="M25.341 23.585v6.326h-23.238v-28.944h22.701v6.326h-14.596v4.879h12.86v6.12h-12.86v5.293h15.134z"></path>
<path d="M59.077 0.968v28.944h-6.74l-12.777-15.423v15.423h-8.022v-28.944h6.74l12.777 15.423v-15.423h8.022z"></path>
</symbol>
<symbol id="icon-hell" viewBox="0 0 80 32">
<path d="M25.571 3.185v26.877h-7.602v-10.482h-10.367v10.482h-7.602v-26.877h7.602v10.098h10.367v-10.098h7.602z"></path>
<path d="M53.395 19.695c0 0.051-0.038 0.653-0.115 1.805h-15.128c0.307 1.075 0.896 1.907 1.766 2.496 0.896 0.563 2.009 0.845 3.341 0.845 0.998 0 1.856-0.141 2.572-0.422 0.742-0.282 1.485-0.742 2.227-1.382l3.84 3.993c-2.022 2.253-4.979 3.379-8.869 3.379-2.432 0-4.569-0.461-6.412-1.382s-3.276-2.201-4.3-3.84c-0.998-1.638-1.497-3.494-1.497-5.567 0-2.048 0.486-3.878 1.459-5.491 0.998-1.638 2.368-2.918 4.108-3.84s3.699-1.382 5.874-1.382c2.073 0 3.955 0.435 5.644 1.305 1.689 0.845 3.020 2.086 3.993 3.724 0.998 1.613 1.497 3.532 1.497 5.759zM42.299 14.089c-1.126 0-2.073 0.32-2.841 0.96-0.742 0.64-1.216 1.51-1.421 2.611h8.524c-0.205-1.101-0.691-1.971-1.459-2.611-0.742-0.64-1.677-0.96-2.803-0.96z"></path>
<path d="M58.294 1.573h7.295v28.489h-7.295v-28.489z"></path>
<path d="M71.866 1.573h7.295v28.489h-7.295v-28.489z"></path>
</symbol>
</defs>
</svg>
